<svg width="32" height="32" viewBox="0 0 32 32" fill="none" xmlns="http://www.w3.org/2000/svg">
<g clip-path="url(#clip0_298_879)">
<path fill-rule="evenodd" clip-rule="evenodd" d="M5.33332 15.9993C5.33351 13.9466 5.92601 11.9375 7.03971 10.2132C8.15341 8.48884 9.741 7.12247 11.612 6.27803C13.483 5.43359 15.5579 5.14695 17.5878 5.45251C19.6176 5.75807 21.5162 6.64285 23.0557 8.00067C24.5952 9.3585 25.7102 11.1317 26.2669 13.1075C26.8236 15.0833 26.7984 17.1778 26.1943 19.1396C25.5901 21.1014 24.4328 22.8472 22.861 24.1676C21.2893 25.488 19.37 26.3268 17.3333 26.5833V18.666H20C20.3536 18.666 20.6927 18.5255 20.9428 18.2755C21.1928 18.0254 21.3333 17.6863 21.3333 17.3327C21.3333 16.9791 21.1928 16.6399 20.9428 16.3899C20.6927 16.1398 20.3536 15.9993 20 15.9993H17.3333V13.3327C17.3333 12.9791 17.4738 12.6399 17.7238 12.3899C17.9739 12.1398 18.313 11.9993 18.6667 11.9993H19.3333C19.6869 11.9993 20.0261 11.8589 20.2761 11.6088C20.5262 11.3588 20.6667 11.0196 20.6667 10.666C20.6667 10.3124 20.5262 9.97325 20.2761 9.72321C20.0261 9.47316 19.6869 9.33268 19.3333 9.33268H18.6667C17.6058 9.33268 16.5884 9.75411 15.8382 10.5043C15.0881 11.2544 14.6667 12.2718 14.6667 13.3327V15.9993H12C11.6464 15.9993 11.3072 16.1398 11.0572 16.3899C10.8071 16.6399 10.6667 16.9791 10.6667 17.3327C10.6667 17.6863 10.8071 18.0254 11.0572 18.2755C11.3072 18.5255 11.6464 18.666 12 18.666H14.6667V26.5833C12.0889 26.2583 9.71842 25.0037 7.99999 23.055C6.28157 21.1063 5.33337 18.5975 5.33332 15.9993ZM16 29.3327C23.364 29.3327 29.3333 23.3633 29.3333 15.9993C29.3333 8.63535 23.364 2.66602 16 2.66602C8.63599 2.66602 2.66666 8.63535 2.66666 15.9993C2.66666 23.3633 8.63599 29.3327 16 29.3327Z" fill="white"/>
</g>
<defs>
<clipPath id="clip0_298_879">
<rect width="32" height="32" fill="white"/>
</clipPath>
</defs>
</svg>
