<svg width="32" height="32" viewBox="0 0 32 32" fill="none" xmlns="http://www.w3.org/2000/svg">
<path d="M21.3333 9.33333C21.3333 8.97971 21.4738 8.64057 21.7238 8.39052C21.9739 8.14048 22.313 8 22.6666 8C23.0203 8 23.3594 8.14048 23.6095 8.39052C23.8595 8.64057 24 8.97971 24 9.33333C24 9.68696 23.8595 10.0261 23.6095 10.2761C23.3594 10.5262 23.0203 10.6667 22.6666 10.6667C22.313 10.6667 21.9739 10.5262 21.7238 10.2761C21.4738 10.0261 21.3333 9.68696 21.3333 9.33333Z" fill="white"/>
<path fill-rule="evenodd" clip-rule="evenodd" d="M16 9.66602C14.3203 9.66602 12.7094 10.3333 11.5217 11.521C10.3339 12.7087 9.66669 14.3196 9.66669 15.9993C9.66669 17.6791 10.3339 19.29 11.5217 20.4777C12.7094 21.6654 14.3203 22.3327 16 22.3327C17.6797 22.3327 19.2906 21.6654 20.4784 20.4777C21.6661 19.29 22.3334 17.6791 22.3334 15.9993C22.3334 14.3196 21.6661 12.7087 20.4784 11.521C19.2906 10.3333 17.6797 9.66602 16 9.66602ZM11.6667 15.9993C11.6667 14.8501 12.1232 13.7479 12.9359 12.9352C13.7485 12.1226 14.8507 11.666 16 11.666C17.1493 11.666 18.2515 12.1226 19.0641 12.9352C19.8768 13.7479 20.3334 14.8501 20.3334 15.9993C20.3334 17.1486 19.8768 18.2508 19.0641 19.0635C18.2515 19.8761 17.1493 20.3327 16 20.3327C14.8507 20.3327 13.7485 19.8761 12.9359 19.0635C12.1232 18.2508 11.6667 17.1486 11.6667 15.9993Z" fill="white"/>
<path fill-rule="evenodd" clip-rule="evenodd" d="M23.0106 3.77803C18.3511 3.26149 13.6488 3.26149 8.98931 3.77803C6.30664 4.07803 4.13997 6.19136 3.82531 8.88736C3.27251 13.6135 3.27251 18.3879 3.82531 23.114C4.13997 25.81 6.30531 27.9234 8.98931 28.2234C13.6488 28.7394 18.3511 28.7394 23.0106 28.2234C25.6933 27.9234 27.86 25.81 28.1746 23.114C28.7275 18.3879 28.7275 13.6135 28.1746 8.88736C27.86 6.19136 25.6946 4.07803 23.0106 3.77803ZM9.21064 5.7647C13.723 5.26453 18.2769 5.26453 22.7893 5.7647C24.5626 5.9647 25.9826 7.36336 26.1893 9.1207C26.7239 13.6918 26.7239 18.3096 26.1893 22.8807C26.0824 23.7408 25.6887 24.5397 25.0718 25.1484C24.4548 25.7571 23.6507 26.14 22.7893 26.2354C18.2769 26.7356 13.723 26.7356 9.21064 26.2354C8.34923 26.14 7.54511 25.7571 6.92818 25.1484C6.31125 24.5397 5.91754 23.7408 5.81064 22.8807C5.27604 18.3096 5.27604 13.6918 5.81064 9.1207C5.91754 8.26064 6.31125 7.46173 6.92818 6.85303C7.54511 6.24433 8.34923 5.86004 9.21064 5.7647Z" fill="white"/>
</svg>
