<svg width="28" height="28" viewBox="0 0 28 28" fill="none" xmlns="http://www.w3.org/2000/svg">
<path d="M20.1107 15.0862V13.1914C20.1115 11.9109 19.6238 10.6675 18.7264 9.66237C17.829 8.65725 16.5744 7.94915 15.1655 7.65258C15.1762 7.61584 15.1846 7.57859 15.1905 7.541V5.05262C15.1905 4.77345 15.0651 4.50571 14.8418 4.3083C14.6186 4.1109 14.3158 4 14 4C13.6843 4 13.3815 4.1109 13.1582 4.3083C12.935 4.50571 12.8095 4.77345 12.8095 5.05262V7.541C12.8155 7.57859 12.8238 7.61584 12.8345 7.65258C11.4256 7.94915 10.171 8.65725 9.27364 9.66237C8.37624 10.6675 7.88851 11.9109 7.88931 13.1914V15.0862C7.88931 17.5977 5.66669 18.2251 5.66669 19.4808C5.66669 20.105 5.66669 20.7366 6.30716 20.7366H21.6929C22.3334 20.7366 22.3334 20.105 22.3334 19.4808C22.3334 18.2251 20.1107 17.5977 20.1107 15.0862Z" fill="#1B438F"/>
<path d="M10.2179 21.7892C10.5337 22.445 11.0606 23.0043 11.7331 23.3973C12.4055 23.7904 13.1939 24 14 24C14.8062 24 15.5945 23.7904 16.267 23.3973C16.9394 23.0043 17.4664 22.445 17.7822 21.7892H10.2179Z" fill="#1B438F"/>
</svg>
