<svg width="19" height="20" viewBox="0 0 19 20" fill="none" xmlns="http://www.w3.org/2000/svg">
<path d="M16.383 16.4918L13.7684 13.8982C14.7833 12.6328 15.2748 11.0265 15.1418 9.40982C15.0088 7.79309 14.2615 6.28876 13.0534 5.20614C11.8453 4.12353 10.2684 3.54492 8.6468 3.58929C7.02522 3.63366 5.48226 4.29764 4.3352 5.4447C3.18815 6.59176 2.52416 8.13471 2.47979 9.75629C2.43542 11.3779 3.01403 12.9548 4.09664 14.1629C5.17926 15.371 6.68359 16.1183 8.30032 16.2513C9.91705 16.3843 11.5233 15.8928 12.7887 14.8779L15.3823 17.4714C15.4478 17.5375 15.5257 17.5899 15.6116 17.6257C15.6975 17.6614 15.7896 17.6799 15.8827 17.6799C15.9757 17.6799 16.0678 17.6614 16.1537 17.6257C16.2396 17.5899 16.3175 17.5375 16.383 17.4714C16.5101 17.34 16.5811 17.1644 16.5811 16.9816C16.5811 16.7988 16.5101 16.6232 16.383 16.4918ZM8.83502 14.8779C7.8593 14.8779 6.90549 14.5885 6.0942 14.0464C5.28292 13.5044 4.6506 12.7339 4.2772 11.8324C3.90381 10.931 3.80611 9.93905 3.99647 8.98207C4.18682 8.0251 4.65668 7.14606 5.34662 6.45612C6.03656 5.76618 6.9156 5.29632 7.87257 5.10596C8.82955 4.91561 9.82148 5.01331 10.7229 5.3867C11.6244 5.76009 12.3949 6.39241 12.937 7.2037C13.479 8.01498 13.7684 8.9688 13.7684 9.94452C13.7684 11.2529 13.2486 12.5077 12.3234 13.4329C11.3982 14.3581 10.1434 14.8779 8.83502 14.8779Z" fill="black"/>
</svg>
